<svg xmlns="http://www.w3.org/2000/svg" width="900" height="358" viewBox="0 0 900 358" role="img" aria-label="Lithium Bot progress chart">
  <defs>
    <linearGradient id="panel" x1="0" x2="1">
      <stop offset="0" stop-color="#020617"/>
      <stop offset="1" stop-color="#111827"/>
    </linearGradient>
  </defs>
  <rect x="1" y="1" width="898" height="356" rx="22" fill="url(#panel)" stroke="#334155" stroke-width="2"/>
  <text x="36" y="42" fill="#e0f2fe" font-family="Segoe UI, Arial, sans-serif" font-size="25" font-weight="800">Lithium Bot Static Build Status</text>
  <text x="820" y="42" text-anchor="end" fill="#a7f3d0" font-family="Segoe UI, Arial, sans-serif" font-size="24" font-weight="800">72%</text>
  
  <text x="36" y="98" fill="#e5e7eb" font-family="Segoe UI, Arial, sans-serif" font-size="18" font-weight="600">Normalized records</text>
  <text x="300" y="98" fill="#c4b5fd" font-family="Segoe UI, Arial, sans-serif" font-size="15">Stable</text>
  <rect x="390" y="81" width="500" height="22" rx="11" fill="#1e293b"/>
  <rect x="390" y="81" width="425" height="22" rx="11" fill="#22c55e"/>
  <text x="650" y="98" text-anchor="middle" fill="#020617" font-family="Segoe UI, Arial, sans-serif" font-size="14" font-weight="800">85%</text>

  <text x="36" y="152" fill="#e5e7eb" font-family="Segoe UI, Arial, sans-serif" font-size="18" font-weight="600">Evidence links</text>
  <text x="300" y="152" fill="#c4b5fd" font-family="Segoe UI, Arial, sans-serif" font-size="15">Active</text>
  <rect x="390" y="135" width="500" height="22" rx="11" fill="#1e293b"/>
  <rect x="390" y="135" width="375" height="22" rx="11" fill="#22c55e"/>
  <text x="650" y="152" text-anchor="middle" fill="#020617" font-family="Segoe UI, Arial, sans-serif" font-size="14" font-weight="800">75%</text>

  <text x="36" y="206" fill="#e5e7eb" font-family="Segoe UI, Arial, sans-serif" font-size="18" font-weight="600">Dashboard search</text>
  <text x="300" y="206" fill="#c4b5fd" font-family="Segoe UI, Arial, sans-serif" font-size="15">Building</text>
  <rect x="390" y="189" width="500" height="22" rx="11" fill="#1e293b"/>
  <rect x="390" y="189" width="325" height="22" rx="11" fill="#22c55e"/>
  <text x="650" y="206" text-anchor="middle" fill="#020617" font-family="Segoe UI, Arial, sans-serif" font-size="14" font-weight="800">65%</text>

  <text x="36" y="260" fill="#e5e7eb" font-family="Segoe UI, Arial, sans-serif" font-size="18" font-weight="600">Viewer permissions</text>
  <text x="300" y="260" fill="#c4b5fd" font-family="Segoe UI, Arial, sans-serif" font-size="15">Active</text>
  <rect x="390" y="243" width="500" height="22" rx="11" fill="#1e293b"/>
  <rect x="390" y="243" width="400" height="22" rx="11" fill="#22c55e"/>
  <text x="650" y="260" text-anchor="middle" fill="#020617" font-family="Segoe UI, Arial, sans-serif" font-size="14" font-weight="800">80%</text>

  <text x="36" y="314" fill="#e5e7eb" font-family="Segoe UI, Arial, sans-serif" font-size="18" font-weight="600">Runtime health checks</text>
  <text x="300" y="314" fill="#c4b5fd" font-family="Segoe UI, Arial, sans-serif" font-size="15">Needs proof</text>
  <rect x="390" y="297" width="500" height="22" rx="11" fill="#1e293b"/>
  <rect x="390" y="297" width="275" height="22" rx="11" fill="#22c55e"/>
  <text x="650" y="314" text-anchor="middle" fill="#020617" font-family="Segoe UI, Arial, sans-serif" font-size="14" font-weight="800">55%</text>

</svg>
